<mxfile host="app.diagrams.net" modified="2022-10-07T18:41:45.222Z" agent="5.0 (Windows NT 10.0; Win64; x64) AppleWebKit/537.36 (KHTML, like Gecko) Chrome/104.0.5112.102 Safari/537.36 OPR/90.0.4480.117" etag="HF9vDYP2uwzX9EoeoI0J" version="20.3.6" type="github">
  <diagram id="jl63-lAEif3Nlczby-bH" name="Page-1">
    <mxGraphModel dx="2021" dy="1124" grid="1" gridSize="10" guides="1" tooltips="1" connect="1" arrows="1" fold="1" page="1" pageScale="1" pageWidth="850" pageHeight="1100" math="0" shadow="0">
      <root>
        <mxCell id="0" />
        <mxCell id="1" parent="0" />
      </root>
    </mxGraphModel>
  </diagram>
</mxfile>
